<?xml version="1.0" encoding="UTF-8"?>
<!DOCTYPE svg PUBLIC "-//W3C//DTD SVG 1.1//EN" "http://www.w3.org/Graphics/SVG/1.1/DTD/svg11.dtd">
<!-- Creator: CorelDRAW 2020 (64 Bit) -->
<svg xmlns="http://www.w3.org/2000/svg" xml:space="preserve" width="180.516mm" height="33.8248mm" version="1.1" style="shape-rendering:geometricPrecision; text-rendering:geometricPrecision; image-rendering:optimizeQuality; fill-rule:evenodd; clip-rule:evenodd"
viewBox="0 0 6405.7 1200.29"
 xmlns:xlink="http://www.w3.org/1999/xlink"
 xmlns:xodm="http://www.corel.com/coreldraw/odm/2003">
 <defs>
  <style type="text/css">
   <![CDATA[
    .fil0 {fill:black;fill-rule:nonzero}
    .fil1 {fill:url(#id0)}
    .fil3 {fill:url(#id1)}
    .fil2 {fill:url(#id2)}
   ]]>
  </style>
  <linearGradient id="id0" gradientUnits="userSpaceOnUse" x1="838.67" y1="231.06" x2="838.67" y2="1388.78">
   <stop offset="0" style="stop-opacity:1; stop-color:#00B2C4"/>
   <stop offset="1" style="stop-opacity:1; stop-color:#242BB8"/>
  </linearGradient>
  <linearGradient id="id1" gradientUnits="userSpaceOnUse" xlink:href="#id0" x1="1501.91" y1="383.73" x2="1501.91" y2="1116.07">
  </linearGradient>
  <linearGradient id="id2" gradientUnits="userSpaceOnUse" xlink:href="#id0" x1="166.59" y1="383.73" x2="166.59" y2="1116.07">
  </linearGradient>
 </defs>
 <g id="Layer_x0020_1">
  <metadata id="CorelCorpID_0Corel-Layer"/>
  <path class="fil0" d="M2016.14 1124.12l0 -190.61c40.64,23.46 89.23,42.73 145.79,58.23 56.55,15.5 108.5,23.04 155.84,23.04 34.77,0 59.91,-2.52 75.41,-7.54 15.5,-5.03 23.46,-15.08 23.46,-29.74 0,-11.73 -5.03,-21.37 -15.5,-28.91 -10.48,-7.12 -28.91,-15.08 -56.14,-23.46 -27.23,-8.38 -58.23,-17.6 -93.84,-27.23 -59.91,-18.02 -107.25,-36.03 -141.6,-54.88 -34.77,-18.85 -60.33,-42.31 -77.08,-70.8 -16.76,-28.49 -25.13,-64.52 -25.13,-107.67 0,-77.08 30.16,-134.48 90.91,-172.6 60.74,-37.7 143.69,-56.55 249.26,-56.55 51.11,0 105.15,5.44 161.7,15.92 56.56,10.89 99.29,25.13 127.78,43.15l0 187.68c-29.74,-19.69 -68.71,-36.03 -117.3,-49.02 -49.02,-12.57 -94.68,-18.85 -136.99,-18.85 -33.51,0 -59.49,2.93 -78.34,9.22 -18.85,6.28 -28.07,17.59 -28.07,33.51 0,14.66 9.22,25.98 28.07,33.93 18.85,7.96 52.37,17.59 100.54,29.74 31.42,7.96 44.83,11.31 39.8,10.05 63.26,16.76 111.85,35.61 146.62,56.14 34.35,20.53 58.65,45.24 72.89,73.31 14.24,28.07 21.37,64.09 21.37,107.24 0,67.87 -29.33,121.91 -87.56,161.71 -58.65,39.8 -143.69,59.91 -255.13,59.91 -57.39,0 -116.88,-5.45 -178.88,-16.76 -62,-11.31 -111.43,-27.65 -147.88,-48.18zm721.43 -312.1c0,-73.73 18.01,-139.08 54.04,-195.64 36.03,-56.56 87.14,-100.96 152.91,-133.22 65.77,-31.84 142.85,-47.76 230.41,-47.76 87.55,0 164.64,15.92 230.83,47.76 65.77,32.26 116.88,76.66 152.91,133.22 36.03,56.56 54.04,121.91 54.04,195.64 0,74.15 -18.02,139.5 -54.04,196.06 -36.03,56.55 -87.13,100.96 -152.91,132.8 -280.73,136.8 -661.64,41.43 -668.19,-328.86zm609.12 0c0,-54.04 -15.5,-96.77 -46.5,-127.77 -31.42,-31 -72.89,-46.5 -125.26,-46.5 -52.37,0 -93.84,15.5 -124.84,46.5 -31,31 -46.5,73.73 -46.5,127.77 0,54.04 15.5,96.77 46.5,127.77 31,31.42 72.48,46.92 124.84,46.92 52.37,0 93.84,-15.5 125.26,-46.92 31,-31 46.5,-73.73 46.5,-127.77zm361.95 81.27l0 -435.68 260.15 0 0 406.36c0,81.69 36.87,122.75 111.02,122.75 33.51,0 64.09,-7.96 91.74,-23.88 27.23,-15.5 49.85,-38.96 67.87,-69.54l0 -435.68 259.74 0 0 709.24 -250.94 0 0 -76.66c-30.58,32.26 -67.87,56.97 -111.01,73.73 -43.15,16.76 -88.39,25.13 -135.74,25.13 -97.61,0 -170.92,-27.23 -219.52,-81.27 -49.02,-54.04 -73.31,-125.68 -73.31,-214.49zm923.74 -435.68l250.94 0 0 88.39c27.65,-31.42 66.61,-56.14 116.88,-73.31 50.27,-17.18 105.99,-25.56 167.15,-25.56l0 199.41c-64.93,0 -122.33,9.22 -172.18,28.07 -49.85,18.85 -83.79,46.92 -102.64,84.2l0 408.04 -260.15 0 0 -709.24zm578.96 357.35c0,-116.88 35.19,-209.46 105.99,-277.75 70.38,-67.87 172.18,-101.8 304.98,-101.8 84.63,0 157.1,15.92 217.84,47.76 60.75,32.26 106.41,75.83 137.41,131.54 31,55.72 46.5,118.56 46.5,188.52l0 95.93 -565.97 0c10.05,39.8 34.77,68.28 74.15,85.88 39.38,18.01 93,26.81 160.87,26.81 46.5,0 93.84,-4.19 142.85,-12.15 48.59,-7.96 90.49,-18.43 126.1,-32.26l0 171.34c-36.45,14.66 -81.69,26.81 -136.57,36.45 -54.88,9.22 -110.59,13.83 -167.57,13.83 -139.09,0 -248.42,-32.67 -327.6,-97.61 -79.18,-64.93 -118.98,-157.1 -118.98,-276.49zm567.65 -78.34c-3.77,-38.12 -19.69,-68.28 -47.34,-90.07 -27.65,-21.37 -65.77,-32.26 -113.95,-32.26 -47.34,0 -84.63,10.89 -112.28,33.09 -27.65,22.2 -43.57,51.95 -47.34,89.23l320.9 0zm348.97 -509.83c0,-38.12 13.41,-70.38 39.8,-96.77 26.39,-25.98 59.49,-38.96 98.87,-38.96 38.54,0 71.22,12.99 98.45,38.96 27.23,26.39 40.63,58.65 40.63,96.77 0,38.54 -13.41,70.8 -40.63,96.77 -27.23,26.39 -59.91,39.38 -98.45,39.38 -39.38,0 -72.48,-12.99 -98.87,-38.54 -26.39,-25.56 -39.8,-58.23 -39.8,-97.61zm8.8 230.83l260.15 0 0 709.24 -260.15 0 0 -709.24z"/>
  <polygon class="fil1" points="161.33,1185.2 1516.01,1185.2 838.66,0 "/>
  <polygon class="fil2" points="-0,188.57 -0,1185.04 333.17,602.05 "/>
  <polygon class="fil3" points="1664.71,1166.08 1664.71,188.57 1339.11,596.37 "/>
 </g>
</svg>
