<svg version="1.1" id="Layer_1" xmlns="http://www.w3.org/2000/svg" xmlns:xlink="http://www.w3.org/1999/xlink" x="0px" y="0px"
	 width="100%" viewBox="0 0 288 288" enable-background="new 0 0 288 288" xml:space="preserve">
<path fill="#000000" opacity="1.000000" stroke="none" 
	d="
M127.468658,289.000000 
	C119.461761,286.470886 111.740936,284.562408 104.438080,281.244751 
	C62.190327,262.051544 35.756687,229.647720 27.907497,184.205276 
	C18.006165,126.882065 38.308167,80.531334 86.535355,48.399193 
	C119.683830,26.313494 157.019974,21.548899 195.215927,34.106537 
	C244.780197,50.401733 274.711975,85.304138 285.000031,136.027084 
	C298.044708,200.341034 258.501373,266.099701 196.172363,285.945160 
	C193.015320,286.950378 189.770370,287.679535 186.283173,288.768616 
	C166.645767,289.000000 147.291550,289.000000 127.468658,289.000000 
M67.998123,240.992371 
	C67.998123,240.992371 67.977730,240.964813 68.195549,241.610733 
	C69.346756,243.878174 71.089790,245.671524 72.900902,247.395538 
	C100.323051,273.498993 132.746460,285.129181 170.528687,280.721222 
	C206.779556,276.491943 234.764084,258.407715 255.669312,228.913147 
	C257.588409,226.205566 260.164825,223.537430 260.102600,219.845200 
	C258.356934,218.657043 256.639252,219.063690 255.013550,219.044647 
	C249.016342,218.974411 243.017731,219.023987 237.020538,218.952957 
	C234.053940,218.917816 230.774109,218.541473 231.179367,214.608688 
	C231.522491,211.278748 234.346115,210.826096 237.331085,211.300293 
	C238.960983,211.559235 240.651337,211.575500 242.306931,211.510452 
	C248.430862,211.269852 254.566315,210.159332 260.591888,212.478668 
	C262.315216,213.141983 263.907440,212.281082 264.617981,210.453125 
	C267.528259,202.965973 271.227173,195.893280 273.332092,187.961746 
	C278.936401,166.843796 277.566193,145.914413 272.080933,125.348457 
	C266.574646,104.703499 255.340210,86.999878 239.770691,72.193466 
	C207.508575,41.512589 169.081604,32.449436 126.576996,42.306625 
	C95.713837,49.464054 71.727142,67.260109 54.927872,94.882408 
	C47.890884,106.453018 42.308975,118.289001 39.083328,131.260406 
	C37.813393,136.367249 37.785427,141.792419 37.314850,147.083572 
	C37.144302,149.001175 37.833412,151.658035 39.874836,151.095947 
	C44.834049,149.730499 50.983398,150.404205 54.095409,145.098419 
	C56.305477,141.330414 58.564732,141.913879 61.414257,143.903763 
	C62.774906,144.853928 64.190346,145.732361 65.623352,146.570847 
	C68.739410,148.394089 68.907471,150.469940 66.305931,152.911911 
	C63.391163,155.647964 60.171436,158.151230 57.702946,161.248734 
	C54.119427,165.745377 50.758762,166.473358 45.518578,163.556488 
	C39.738335,160.339005 35.875725,163.511093 36.742744,170.340393 
	C37.350609,175.128418 37.979492,179.900421 38.423878,184.711258 
	C38.722122,187.940018 39.590649,191.183762 41.134850,194.063797 
	C43.562225,194.079330 44.731010,192.683777 45.973579,191.314713 
	C48.318558,188.731018 50.521511,185.956451 53.179012,183.734177 
	C56.456795,180.993210 58.765953,181.752213 60.047993,185.895157 
	C60.808208,188.351807 62.335209,189.000061 64.490555,188.961441 
	C68.148361,188.895935 71.806343,188.770447 75.460548,188.593628 
	C78.829010,188.430649 80.889122,190.809677 83.147049,192.628036 
	C84.267052,193.529999 83.368401,194.805084 82.397575,195.574066 
	C80.552414,197.035645 78.430885,198.889343 76.121780,197.341599 
	C71.204948,194.046005 65.867058,195.152359 60.609261,195.213608 
	C58.694798,195.235901 55.906277,194.816254 55.853310,197.525055 
	C55.796013,200.455170 58.679520,199.588089 60.514114,199.764145 
	C62.333977,199.938766 64.203644,199.742737 65.992737,200.050568 
	C68.032486,200.401550 70.241379,200.782318 71.325600,203.711746 
	C64.509003,205.853760 57.884056,206.901627 51.061802,205.694092 
	C49.032120,205.334824 47.502110,204.877243 47.412376,207.150131 
	C52.522530,212.153763 58.572884,211.005508 64.384804,211.032791 
	C70.713669,211.062485 77.044563,210.976761 83.370674,211.117065 
	C85.920700,211.173630 88.768166,211.683441 88.778259,215.002869 
	C88.788368,218.326492 85.958588,218.840668 83.396599,218.897781 
	C75.235893,219.079636 67.071167,219.073914 58.909126,219.208588 
	C56.975399,219.240479 54.895802,218.711197 52.525715,220.733597 
	C56.192989,228.545776 60.377239,236.013855 67.998123,240.992371 
z"/>
<path fill="#000000" opacity="1.000000" stroke="none" 
	d="
M68.009735,241.004700 
	C67.739807,234.591675 68.744118,233.313522 75.159431,233.162979 
	C82.789085,232.983963 90.426155,233.120865 98.382790,233.120865 
	C98.717278,228.441925 96.773720,224.432526 96.723877,220.147873 
	C96.564171,206.417419 98.752411,192.988159 101.028175,179.526352 
	C103.074196,167.423569 106.280640,155.459351 105.887283,143.023758 
	C105.714912,137.574554 103.805595,133.011520 99.465118,129.524719 
	C89.825851,121.781319 85.361366,111.940025 88.293800,99.614777 
	C91.301254,86.974274 99.736938,79.270958 112.250259,77.010361 
	C125.401375,74.634537 138.780212,74.863373 151.973404,77.276047 
	C162.418823,79.186234 170.552109,85.368355 177.533539,92.938538 
	C202.245987,119.734985 220.411728,150.171417 227.795975,186.268372 
	C230.752747,200.722198 231.834137,215.302246 226.251709,229.549866 
	C225.961914,230.289505 225.905701,231.120667 225.739716,231.914154 
	C228.131561,233.777603 230.717682,232.835464 233.108032,233.094330 
	C235.417694,233.344437 237.779663,233.325592 240.033096,233.817139 
	C242.039322,234.254776 243.067810,235.908951 242.815536,237.968246 
	C242.591141,239.799911 241.340332,240.954758 239.494339,241.185150 
	C238.014282,241.369904 236.504990,241.366638 235.008606,241.367905 
	C184.040665,241.410904 133.072723,241.462799 82.104790,241.447418 
	C77.653687,241.446075 73.172173,242.939316 68.360641,241.117218 
	C67.977730,240.964813 67.998123,240.992371 68.009735,241.004700 
M204.736267,144.718842 
	C195.131119,126.472641 183.508682,109.687431 168.674561,95.264717 
	C161.100266,87.900497 152.291458,83.459831 141.374954,83.845375 
	C133.386215,84.127533 125.375313,83.814865 117.389557,84.141037 
	C107.846535,84.530823 99.480705,90.909882 96.572258,99.517288 
	C93.563255,108.422249 96.101952,117.122704 103.935165,123.662521 
	C112.591766,130.889771 115.453598,140.304260 113.779991,150.970734 
	C111.021767,168.549774 107.552734,186.021118 105.538406,203.712967 
	C104.619606,211.782837 103.138840,219.919312 105.989166,227.950668 
	C106.773239,230.159943 107.301620,232.733582 110.204483,232.885651 
	C114.100647,233.089752 118.015533,232.936218 122.481232,232.936218 
	C120.134506,225.558899 120.696709,218.614014 121.690903,211.664154 
	C121.855728,210.511993 121.938904,209.343246 122.181335,208.208115 
	C122.683937,205.854828 123.960388,204.016983 126.574257,204.378830 
	C129.537186,204.788986 130.003403,207.089981 129.676880,209.673538 
	C128.888153,215.914429 127.208679,222.129776 129.170013,228.450470 
	C129.831680,230.582764 130.542511,232.792526 133.215408,232.883438 
	C137.488678,233.028839 141.770523,232.922379 146.580338,232.922379 
	C144.974686,224.959106 145.548782,217.395370 147.095139,209.917770 
	C147.626663,207.347443 147.639206,203.511627 151.855820,204.371521 
	C155.630264,205.141220 154.844345,208.175354 154.615341,211.186981 
	C154.152466,217.274200 152.186340,223.335999 154.021881,229.530075 
	C154.713135,231.862762 155.663147,233.272751 158.446594,233.250992 
	C175.440033,233.118164 192.434494,233.108154 209.428665,233.084229 
	C214.437592,233.077179 217.532761,230.287918 219.335541,226.010895 
	C220.753708,222.646317 221.481430,219.084503 221.761841,215.362213 
	C223.654892,190.234329 216.442139,167.323441 204.736267,144.718842 
z"/>
<path fill="#000000" opacity="1.000000" stroke="none" 
	d="
M252.077667,190.031769 
	C254.104584,190.074417 256.195831,189.909927 256.094543,192.246384 
	C256.018005,194.011841 254.107742,194.300293 252.645020,194.505142 
	C250.467850,194.810059 248.350739,194.665131 246.742676,192.511978 
	C247.675552,190.188324 250.007095,190.734833 252.077667,190.031769 
z"/>
<path fill="#000000" opacity="1.000000" stroke="none" 
	d="
M251.798492,203.480820 
	C249.790359,203.713791 248.141190,203.901840 246.487686,203.954956 
	C245.517532,203.986115 244.540512,203.802521 243.466354,203.706558 
	C245.430252,200.318207 250.385544,198.812836 253.006592,200.749664 
	C255.031448,202.245926 253.426773,202.816208 251.798492,203.480820 
z"/>
<path fill="#000000" opacity="1.000000" stroke="none" 
	d="
M113.229263,97.745155 
	C110.364967,98.035980 107.874619,98.273819 105.398186,98.172241 
	C103.286140,98.085602 101.980766,96.740028 102.095673,94.582138 
	C102.172203,93.144989 103.218422,92.036919 104.699081,91.982513 
	C107.931000,91.863762 111.448685,90.570213 114.204880,93.227493 
	C115.644218,94.615173 115.116829,96.280022 113.229263,97.745155 
z"/>
<path fill="#000000" opacity="1.000000" stroke="none" 
	d="
M145.218689,94.383148 
	C148.084106,92.292938 150.273361,93.012718 151.844925,95.430557 
	C153.031464,97.256035 152.914993,99.271652 151.144882,100.815323 
	C149.461258,102.283592 147.493607,102.560440 145.695328,101.157364 
	C143.350845,99.328117 143.164795,97.056038 145.218689,94.383148 
z"/>
<path fill="#000000" opacity="1.000000" stroke="none" 
	d="
M113.024277,112.456833 
	C110.653458,113.599724 109.132500,112.899658 108.245377,110.961685 
	C107.618828,109.592972 108.119987,108.363213 109.354942,107.503593 
	C110.584618,106.647644 111.874512,106.660408 113.032204,107.584618 
	C114.791283,108.988937 114.911179,110.579132 113.024277,112.456833 
z"/>
<path fill="#000000" opacity="1.000000" stroke="none" 
	d="
M105.218735,107.534477 
	C107.075104,109.339668 107.319740,110.918808 105.436768,112.405930 
	C104.253677,113.340286 102.978424,113.335129 101.758553,112.457207 
	C100.583191,111.611320 99.877876,110.457695 100.451668,109.023643 
	C101.284218,106.942917 102.873993,106.456207 105.218735,107.534477 
z"/>
</svg>