<svg version="1.1" id="Layer_1" xmlns="http://www.w3.org/2000/svg" xmlns:xlink="http://www.w3.org/1999/xlink" x="0px" y="0px"
	 width="100%" viewBox="0 0 1024 1024" enable-background="new 0 0 1024 1024" xml:space="preserve">
<path fill="#000000" opacity="1.000000" stroke="none" 
	d="
M147.075043,492.287842 
	C147.727631,473.008484 149.481995,454.301331 152.847961,435.790741 
	C162.601318,382.153564 183.571594,333.312042 215.886032,289.364624 
	C251.475372,240.963379 295.809204,202.888306 349.891724,176.526489 
	C381.345612,161.194687 414.474091,151.017166 449.088898,145.549347 
	C471.681702,141.980530 494.362976,140.251022 517.205139,140.703629 
	C591.494995,142.175613 659.467041,163.347046 720.089722,206.682465 
	C785.813843,253.664551 831.025024,315.864014 856.110718,392.591370 
	C864.507690,418.274353 869.507690,444.707703 871.409912,471.717896 
	C876.294006,541.064514 864.046448,606.973206 831.742065,668.775635 
	C808.270935,713.679077 776.509460,751.876160 737.248108,783.874512 
	C697.993042,815.867798 654.213501,839.179871 605.329529,852.697510 
	C570.898804,862.218506 535.743713,866.195557 500.118134,865.097534 
	C424.837708,862.777222 356.219574,840.280029 295.299744,795.605774 
	C237.894073,753.508545 196.617935,698.957031 170.815155,632.655884 
	C159.150864,602.684021 152.179871,571.566467 148.911957,539.648010 
	C147.318924,524.088623 146.503876,508.435089 147.075043,492.287842 
M200.734802,630.825439 
	C204.558945,639.879456 208.690567,648.784851 213.301117,657.471619 
	C240.909454,709.488953 279.403717,751.674622 328.702118,783.734985 
	C373.864777,813.105591 423.370148,830.161499 477.227051,834.949646 
	C507.960693,837.682068 538.417175,836.488342 568.674500,831.296143 
	C612.892578,823.708252 653.728333,807.198669 691.118286,782.376343 
	C741.273010,749.079773 780.598267,705.958801 808.105896,652.299805 
	C827.607300,614.258423 839.297180,573.937073 842.840820,531.276611 
	C844.901489,506.467834 844.770325,481.665985 841.423157,457.029358 
	C835.342896,412.276978 821.130981,370.034119 797.269287,331.723083 
	C731.301025,225.808060 635.325439,171.584320 510.682953,168.579788 
	C487.901550,168.030624 465.161743,170.640549 442.748352,175.245087 
	C361.842987,191.866028 295.591705,232.478851 244.997040,297.707825 
	C206.608994,347.199432 183.568054,403.217621 177.034790,465.836487 
	C174.359711,491.476135 174.556717,517.049011 177.598465,542.545410 
	C181.199249,572.727783 188.736649,601.995667 200.734802,630.825439 
z"/>
<path fill="#000000" opacity="1.000000" stroke="none" 
	d="
M512.258179,251.246628 
	C507.405029,253.156723 502.804108,254.706223 498.946106,257.757812 
	C496.891174,259.383179 494.729126,259.035980 492.331024,258.487244 
	C457.426208,250.500244 425.277618,256.720703 396.114288,277.580566 
	C388.610260,282.948029 382.331299,289.654449 377.139099,297.284851 
	C375.591370,299.559357 373.732819,301.269714 371.519409,302.820892 
	C337.694366,326.525970 303.660889,349.937347 270.385681,374.418640 
	C269.158813,375.321289 268.072174,376.050629 266.358337,375.925720 
	C254.648712,375.072205 247.360336,379.515747 242.819794,390.099152 
	C236.207626,405.511261 239.553894,423.551300 251.491638,435.346039 
	C253.611404,437.440430 254.482132,439.479095 254.332932,442.339935 
	C254.045914,447.843018 254.372574,453.304138 255.929916,458.653931 
	C260.859467,475.587860 272.790619,484.604156 289.515961,487.557739 
	C310.138702,491.199615 328.431885,486.114532 343.824158,471.555634 
	C346.255402,469.256012 349.290100,469.004761 356.771362,470.555969 
	C350.390228,488.658203 333.867767,492.695923 318.391541,499.094330 
	C328.229370,505.263153 337.901825,510.313385 347.958771,514.629761 
	C360.985596,520.220764 374.323639,524.945984 388.243011,527.735596 
	C392.789398,528.646729 394.130005,530.576965 393.276154,535.109131 
	C390.079712,552.075806 387.170319,569.096313 384.114685,586.089722 
	C378.207611,618.940552 372.246918,651.781738 366.359711,684.636108 
	C360.558899,717.008423 354.826294,749.393066 349.038361,781.767761 
	C348.807526,783.058838 348.314514,784.303040 347.760620,786.194031 
	C340.635986,782.754456 334.525116,778.242188 328.111633,774.273254 
	C326.537689,773.299316 327.253418,771.598755 327.513092,770.134705 
	C330.762054,751.817322 333.989258,733.496155 337.246094,715.180176 
	C344.749512,672.981812 352.257111,630.784302 359.783142,588.589966 
	C361.883240,576.815796 363.868469,565.015869 366.286530,553.306274 
	C367.197845,548.893005 366.023193,546.938171 361.699707,545.839844 
	C337.830048,539.775635 316.173523,529.044189 296.479187,514.309509 
	C294.663269,512.950989 292.730591,512.419495 290.472961,512.284302 
	C260.240234,510.473175 233.644989,488.742371 230.517822,456.976166 
	C230.224030,453.991730 229.180252,451.320587 227.399734,448.718842 
	C214.374847,429.686584 212.083298,409.098572 219.003647,387.296478 
	C220.612396,382.228180 223.520203,378.297943 227.936508,375.084686 
	C269.429565,344.894714 311.328888,315.280884 353.513916,286.068787 
	C355.582733,284.636169 357.381866,282.997528 358.934662,280.970886 
	C380.263428,253.133392 408.939972,237.753235 443.017426,231.659592 
	C458.924713,228.815079 474.804413,229.170883 490.615997,232.527985 
	C492.468597,232.921326 494.215515,232.606537 495.942200,231.768616 
	C516.759399,221.666336 538.562927,221.221100 560.814636,225.190857 
	C610.683228,234.087494 654.101746,256.993744 694.147461,286.988983 
	C738.237183,320.013306 772.875061,360.996033 797.042542,410.659851 
	C807.138855,431.407745 814.332703,453.175385 820.176758,475.431458 
	C820.413635,476.333710 820.856018,477.351013 819.506714,478.849548 
	C817.616394,475.808136 815.757263,472.982208 814.060913,470.061707 
	C797.321350,441.241791 780.261047,412.616089 759.862610,386.176727 
	C716.669312,330.191803 663.844055,286.603302 597.358582,260.797882 
	C578.488464,253.473709 558.936768,248.783127 538.708557,247.597916 
	C529.900574,247.081818 521.103027,248.309601 512.258179,251.246628 
z"/>
<path fill="#000000" opacity="1.000000" stroke="none" 
	d="
M599.033447,464.006531 
	C600.098938,429.690613 599.446289,395.859406 599.879333,362.037292 
	C599.947510,356.712402 600.362671,351.392334 600.590820,346.068878 
	C600.649170,344.706299 600.771484,343.359711 601.841003,342.392670 
	C607.482117,337.292053 613.148071,332.218903 618.836914,327.107971 
	C621.054382,329.132690 620.315613,331.257690 620.291992,333.102600 
	C619.186584,419.250122 619.534851,505.405945 618.771912,591.553894 
	C618.557922,615.709534 618.381348,639.871155 618.117004,664.028809 
	C618.043030,670.782227 616.564087,676.332397 610.620483,680.181519 
	C606.346130,682.949707 603.290039,687.313721 597.457825,690.607666 
	C597.986206,614.540894 598.507324,539.523010 599.033447,464.006531 
z"/>
<path fill="#000000" opacity="1.000000" stroke="none" 
	d="
M467.638855,603.976257 
	C468.165588,566.569336 468.690735,529.658203 469.215881,492.747101 
	C469.703491,492.521271 470.191101,492.295441 470.678711,492.069611 
	C474.348969,495.010925 477.810760,498.273743 481.737549,500.819366 
	C487.859100,504.787842 489.459717,509.947876 489.262360,517.189331 
	C488.195740,556.325134 487.731995,595.477173 487.008026,634.622620 
	C486.487457,662.769836 485.852783,690.914978 485.366943,719.062744 
	C485.316803,721.967590 484.468475,724.018188 482.164795,725.906433 
	C476.793884,730.309082 471.669006,735.011902 466.444458,739.593079 
	C465.890442,739.468811 465.336426,739.344543 464.782379,739.220276 
	C465.734009,694.304199 466.685638,649.388123 467.638855,603.976257 
z"/>
<path fill="#000000" opacity="1.000000" stroke="none" 
	d="
M738.200806,474.000000 
	C737.630432,510.782562 739.047241,547.077148 737.518250,583.352539 
	C737.485474,584.129944 736.984375,584.934082 735.605957,585.245300 
	C733.162781,581.716919 730.236328,579.120239 725.967590,583.429932 
	C722.552063,586.878296 721.984924,594.287720 724.674683,598.201355 
	C726.403381,600.716675 729.454773,599.232788 731.928589,601.459106 
	C728.942444,607.066528 723.667603,610.383362 717.870544,615.556335 
	C717.165649,541.178833 716.675781,468.226532 717.134705,393.779663 
	C725.217896,399.633362 731.566406,404.861420 737.360413,410.729095 
	C738.673157,412.058502 738.114136,414.238617 738.117737,416.055267 
	C738.155579,435.203491 738.175781,454.351746 738.200806,474.000000 
z"/>
<path fill="#000000" opacity="1.000000" stroke="none" 
	d="
M676.401306,721.195129 
	C676.073181,738.710510 676.847107,755.780334 675.782166,772.715698 
	C674.513123,772.794617 674.118042,772.946899 673.884583,772.814453 
	C670.568298,770.931519 667.620728,767.240356 663.312378,771.138977 
	C659.132202,774.921631 657.246155,781.288513 659.929504,786.114136 
	C662.180298,790.161682 660.509277,791.422852 655.835388,792.818726 
	C654.950195,722.127136 656.305237,651.945496 656.973328,580.098145 
	C662.351318,584.393555 666.410156,587.918274 670.760315,591.036560 
	C675.916748,594.732727 677.632507,599.225891 677.529175,605.762878 
	C676.989319,639.915527 677.075317,674.077942 676.897278,708.236694 
	C676.875549,712.397156 676.574951,716.556152 676.401306,721.195129 
z"/>
<path fill="#000000" opacity="1.000000" stroke="none" 
	d="
M549.259644,796.000000 
	C549.242126,804.662354 549.054688,812.829346 549.277466,820.985107 
	C549.389404,825.083801 547.536926,826.735046 543.806885,827.034302 
	C539.827698,827.353516 535.849243,827.683044 531.871155,828.016418 
	C529.346497,828.227966 528.154663,826.980225 528.062439,824.544312 
	C528.012024,823.213318 527.983276,821.880737 527.982300,820.548828 
	C527.940308,765.744629 527.900452,710.940491 527.875610,656.136292 
	C527.874939,654.675354 527.507141,653.129333 528.747620,651.538391 
	C532.317810,651.722534 533.860168,655.242554 536.612915,656.765686 
	C547.088501,662.561829 549.814331,671.154236 549.548340,683.065369 
	C548.712097,720.527039 549.252197,758.019470 549.259644,796.000000 
z"/>
<path fill="#000000" opacity="1.000000" stroke="none" 
	d="
M658.754272,437.000000 
	C658.753662,392.049744 658.753662,347.599457 658.753662,301.858490 
	C666.158875,307.071320 672.613770,311.570526 678.472473,316.871277 
	C679.657776,317.943695 679.182373,319.716614 679.183044,321.192108 
	C679.204773,370.857941 679.187256,420.523773 679.272949,470.189484 
	C679.278687,473.490509 678.195984,475.799500 675.742432,477.967438 
	C670.429749,482.661621 665.359741,487.630432 660.190491,492.486938 
	C659.711975,492.341431 659.233398,492.195923 658.754883,492.050415 
	C658.754883,473.866943 658.754883,455.683472 658.754272,437.000000 
z"/>
<path fill="#000000" opacity="1.000000" stroke="none" 
	d="
M429.330475,652.517944 
	C428.043610,675.202881 426.727509,697.450439 425.486511,719.702271 
	C424.708313,733.655945 424.092804,747.618713 423.314026,761.572327 
	C422.377502,778.351868 421.273804,795.122314 420.406708,811.905151 
	C420.201538,815.876343 418.741974,816.623352 415.035034,815.642334 
	C400.529266,811.803223 400.120331,811.878296 400.807770,797.218506 
	C401.687653,778.453369 403.311310,759.723999 404.524017,740.973328 
	C405.329010,728.527039 405.985443,716.070984 406.690430,703.618286 
	C407.395447,691.164856 408.050293,678.708496 408.812805,666.258606 
	C408.890717,664.986450 409.192535,663.402771 410.006104,662.553162 
	C415.602936,656.708008 422.028656,651.842041 428.337250,646.701660 
	C429.883850,648.781189 429.122833,650.494446 429.330475,652.517944 
z"/>
<path fill="#000000" opacity="1.000000" stroke="none" 
	d="
M794.205811,591.000000 
	C793.790527,606.410156 794.676453,621.366394 792.494324,636.321472 
	C788.374695,620.342102 791.901123,602.959351 783.208496,587.399780 
	C777.361328,590.306152 779.651672,597.675964 775.383484,601.200500 
	C773.147461,596.600525 772.631287,497.646027 774.858765,490.216980 
	C779.654236,492.444977 782.852661,496.633514 787.039001,499.394409 
	C793.270508,503.504181 795.509705,508.793579 795.248291,516.534119 
	C794.416138,541.172974 794.487793,565.842407 794.205811,591.000000 
z"/>
<path fill="#000000" opacity="1.000000" stroke="none" 
	d="
M470.263672,367.324341 
	C457.000092,365.075958 447.921844,354.845215 447.944183,342.666382 
	C447.965027,331.312286 456.726929,320.772980 468.200958,318.729431 
	C478.046448,316.975891 486.369324,320.103790 492.398193,328.061157 
	C498.424225,336.014771 499.281677,344.910126 494.841675,353.871948 
	C490.480621,362.674377 483.005096,367.017700 473.204620,367.358215 
	C472.375153,367.387054 471.543213,367.344360 470.263672,367.324341 
z"/>
</svg>